HIERARCHY
ROOT HipCenter
{
    OFFSET 0.0 0.0 -0.0
    CHANNELS 6 Xposition Yposition Zposition Zrotation Xrotation Yrotation
    JOINT Spine
    {
        OFFSET 0.0 0.10526026785373688 0.0
        CHANNELS 3 Zrotation Xrotation Yrotation
        JOINT ShoulderCenter
        {
            OFFSET 0.0 0.3107941448688507 0.0
            CHANNELS 3 Zrotation Xrotation Yrotation
            JOINT LeftShoulder
            {
                OFFSET 0.1942979395389557 0.0 0.0
                CHANNELS 3 Zrotation Xrotation Yrotation
                JOINT LeftElbow
                {
                    OFFSET 0.26162880659103394 0.0 0.0
                    CHANNELS 3 Zrotation Xrotation Yrotation
                    JOINT LeftWrist
                    {
                        OFFSET 0.30868566036224365 0.0 0.0
                        CHANNELS 3 Zrotation Xrotation Yrotation
                        JOINT LeftHand
                        {
                            OFFSET 0.03130514174699783 0.0 0.0
                            CHANNELS 3 Zrotation Xrotation Yrotation
                            End Site
                            {
                                OFFSET 0.012522056698799133 0.0 0.0
                            }
                        }
                    }
                }
            }
            JOINT RightShoulder
            {
                OFFSET -0.1942979395389557 0.0 0.0
                CHANNELS 3 Zrotation Xrotation Yrotation
                JOINT RightElbow
                {
                    OFFSET -0.26162880659103394 0.0 0.0
                    CHANNELS 3 Zrotation Xrotation Yrotation
                    JOINT RightWrist
                    {
                        OFFSET -0.30868566036224365 0.0 0.0
                        CHANNELS 3 Zrotation Xrotation Yrotation
                        JOINT RightHand
                        {
                            OFFSET -0.03130514174699783 0.0 0.0
                            CHANNELS 3 Zrotation Xrotation Yrotation
                            End Site
                            {
                                OFFSET -0.012522056698799133 0.0 0.0
                            }
                        }
                    }
                }
            }
            End Site
            {
                OFFSET 0.0 0.12431765347719193 0.0
            }
        }
    }
    JOINT LeftHip
    {
        OFFSET 0.14161977171897888 0.0 0.0
        CHANNELS 3 Zrotation Xrotation Yrotation
        JOINT LeftKnee
        {
            OFFSET 0.0 -0.4168095290660858 0.0
            CHANNELS 3 Zrotation Xrotation Yrotation
            JOINT LeftAnkle
            {
                OFFSET 0.0 -0.43669557571411133 0.0
                CHANNELS 3 Zrotation Xrotation Yrotation
                JOINT LeftFoot
                {
                    OFFSET 0.0 -0.11315186321735382 0.0
                    CHANNELS 3 Zrotation Xrotation Yrotation
                    End Site
                    {
                        OFFSET 0.0 0.0 0.045260749757289886
                    }
                }
            }
        }
    }
    JOINT RightHip
    {
        OFFSET -0.14161977171897888 0.0 0.0
        CHANNELS 3 Zrotation Xrotation Yrotation
        JOINT RightKnee
        {
            OFFSET 0.0 -0.4168095290660858 0.0
            CHANNELS 3 Zrotation Xrotation Yrotation
            JOINT RightAnkle
            {
                OFFSET 0.0 -0.43669557571411133 0.0
                CHANNELS 3 Zrotation Xrotation Yrotation
                JOINT RightFoot
                {
                    OFFSET 0.0 -0.11315186321735382 0.0
                    CHANNELS 3 Zrotation Xrotation Yrotation
                    End Site
                    {
                        OFFSET 0.0 0.0 0.045260749757289886
                    }
                }
            }
        }
    }
}
MOTION
Frames: 10
Frame Time: 0.03333333333333333
-0.03999999910593033 0.054999999701976776 0.3149999976158142 -2.7263104640992135 1.5227532951613673e-09 -3.5949309167331194 0.6706265588597152 -2.5468270048455564 -0.004022096958943311 -1.528196580127629e-08 1.2965778146745973e-07 3.77973491675184 90.52077138207247 6.9892714912473535 165.97517786745513 -1.200630134433713e-06 2.775834089753187e-06 38.88554639323945 -1.5699743766466404e-07 23.182139485007262 28.783471970491167 3.1805546814635176e-15 1.7655625192200634e-31 6.361109362927035e-15 -92.64725585543437 8.555663445665475 -157.584025597021 -4.957507994024947e-07 -1.0711745773964413e-06 -45.42584260935567 -179.99999508305578 -49.62455556593563 142.50171475068512 -2.2069531490250793e-32 7.951386703658792e-16 3.1805546814635168e-15 7.527205349312115 -3.1436121447088556 -23.42228920218529 -6.328150850498624 20.468199660997936 -21.216406326076587 92.14793005793173 -36.40551768028836 150.40777069765613 0.0 1.5902773407317584e-15 0.0 -19.153405489413963 0.7314412006556469 41.995803331995944 0.01258319423015217 0.054642278004882514 0.11290728225063065 -63.48175028210037 -44.80199626961761 -137.59981650629874 4.770832022195277e-15 -5.565970692561156e-15 -3.1805546814635176e-15
-0.03999999910593033 0.054999999701976776 0.3160000145435333 -2.7263104323375904 -0.545049248721985 -3.6224589720169296 0.6371667078735691 -2.0025795950267753 -0.002736582015168983 4.574023317721063e-08 2.0085912836855347e-08 3.6505161512373734 90.58170724429606 7.379778320826984 165.966130911349 -7.169634184774856e-07 4.1018095543402006e-07 39.162386861710964 -3.942155647288853e-06 24.356640892455548 27.357460819212395 1.5902773407317582e-15 0.0 0.0 -92.54483655457068 8.24898045155048 -157.816140870415 -3.929002873001169e-07 -1.814039343201905e-06 -45.033998874746224 179.99999873709302 -50.999023887494985 142.27269057879684 0.0 0.0 -3.1805546814635164e-15 7.4907016173603305 -2.6007110691153987 -22.850671905718137 -6.099367751806724 20.534816187705765 -21.523023872195687 92.15758711696502 -36.751882546072 150.46513689858088 0.0 1.5902773407317584e-15 0.0 -19.191228616772346 1.236199161005747 41.99827649897607 0.04779977371005745 0.021346173816908627 0.044915342994589075 -63.80284007906244 -45.386952239487584 -138.05399304780533 -1.5902773407317584e-15 -6.361109362927035e-15 3.1805546814635176e-15
-0.03999999910593033 0.054999999701976776 0.3160000145435333 -2.7263103795843406 -0.5450492851645145 -3.601995421299861 0.45234289061234234 -2.014047833758521 -0.009650972224592868 2.9580262408481667e-07 9.702982187671372e-08 3.6237717026882788 90.90427139389097 7.039090859093388 166.0167229941714 2.850052624862093e-06 1.6374282732052127e-06 39.260345583663266 -4.395184807401041e-06 23.549084050390356 28.430874775195846 7.951386703658792e-15 4.413906298050159e-31 6.3611093629270335e-15 -92.35293239468064 8.224152239327122 -157.81790691181837 -1.7888481373786328e-06 5.494858496329159e-07 -44.95385418189907 -179.99999844260995 -49.906095569656166 142.54273479023442 2.2069531490250793e-32 -7.951386703658792e-16 3.1805546814635168e-15 7.351672232433538 -2.612526070128169 -22.486227487714896 -5.831927901856938 20.636760221038152 -21.52722966130831 92.16906905767043 -37.15599143871957 150.11493649225238 3.1805546814635168e-15 4.770832022195275e-15 3.1805546814635168e-15 -19.19080950081659 1.2429258971552264 41.97894307588941 0.09346181911033974 0.15697600532567482 0.3296092606352489 -63.66048591771102 -44.8341899039983 -138.13508988877257 1.5902773407317582e-15 2.2069531490250793e-32 1.5902773407317582e-15
-0.03999999910593033 0.054999999701976776 0.3160000145435333 -3.270486628568442 -0.5447782006476094 -3.6077622514664487 1.1795443112283093 -1.9688588692994247 -0.003108709559572443 7.349196963225038e-08 1.7261586459326235e-07 3.6237378260727704 90.70649458761895 7.122516745437259 166.1820571953198 -4.95599081468364e-06 2.0276531957844006e-06 38.93064021916759 3.0822679458246757e-06 20.82631586503214 26.97804549830863 0.0 0.0 6.361109362927033e-15 -92.54111946086289 8.1475984578794 -157.6064275512029 -2.565753241306391e-07 -2.227066720746359e-06 -45.327543049138605 179.99999584749273 -49.69391119443026 142.41736950445198 0.0 0.0 0.0 8.032690614077218 -2.5696666081403237 -22.56867076389211 -6.111429926736748 20.51172301584153 -21.30758751263149 92.18987311592747 -37.25157546753101 150.00061343081782 3.1805546814635168e-15 4.770832022195275e-15 3.1805546814635168e-15 -18.521607399293053 1.2844674094426918 41.825228151276974 -0.05281805940816609 0.09855912036484657 0.20738034359795365 -63.79739200373059 -44.919230695889794 -138.27962943669425 -3.180554681463516e-15 6.361109362927033e-15 -4.770832022195274e-15
-0.039000000804662704 0.054999999701976776 0.3160000145435333 -2.7263105542131636 -0.5450492856865238 -3.294558125296853 0.6362798324440825 -2.190170928176581 -0.003155291375802064 4.246550677467117e-08 2.9439870895121897e-07 3.318374343060498 90.80226874912366 7.407344936818386 165.98719212187467 -3.921344300748415e-06 -1.178382470488342e-06 38.95467690639714 -2.3377639580257094e-06 23.859342709978883 28.230114041768584 0.0 0.0 0.0 -92.68977502607248 7.852110974172945 -157.43909319987998 7.432308467742575e-07 -1.324915080981329e-06 -45.29179309577263 179.99999455497593 -47.24783822682575 140.5442214730683 8.827812596100317e-32 -3.180554681463516e-15 3.180554681463516e-15 7.475812275570342 -2.6434156590713966 -23.176119086533625 -6.288285471739979 20.589863201115303 -21.443437175089198 92.33260374060622 -36.7656375545722 150.4488797705317 8.827812596100317e-32 -1.5902773407317584e-15 6.3611093629270335e-15 -19.192083365874108 1.4799839014253622 42.64936868118805 -0.03824393097547105 -0.08480340985730227 -0.17653940025970044 -64.12790351791888 -44.72275113055701 -138.47286596371896 -4.770832022195274e-15 1.2722218725854065e-14 -1.5902773407317576e-15
-0.039000000804662704 0.054999999701976776 0.3160000145435333 -2.7263105542131636 -0.5450492856865238 -3.294558125296853 0.6362798324440825 -2.190170928176581 -0.003155291375802064 1.7874068439098246e-07 3.409412463815001e-08 3.3180346085072565 90.72049172428744 7.082480097901271 165.997501616145 2.7180428502570807e-06 3.049181861578153e-06 39.09626771962513 1.5342697410975059e-06 20.87030746915151 26.814902326339688 1.5902773407317584e-15 -8.827812596100317e-32 -6.3611093629270335e-15 -92.68977321026865 7.851771645027964 -157.43910910968455 7.432308467742575e-07 -1.324915080981329e-06 -45.29179309577263 179.99999434363798 -49.38041033366464 142.41737136174763 0.0 0.0 0.0 7.475812275570342 -2.6434156590713966 -23.176119086533625 -6.288285471739979 20.589863201115303 -21.443437175089198 92.33260374060622 -36.7656375545722 150.4488797705317 8.827812596100317e-32 -1.5902773407317584e-15 6.3611093629270335e-15 -19.192083365874108 1.4799839014253622 42.64936868118805 0.13912021445295547 -0.05954033580529281 -0.12297467540399176 -63.9228693016755 -44.793546461097684 -138.04684036388986 6.361109362927032e-15 -3.531125038440127e-31 -6.361109362927032e-15
-0.039000000804662704 0.054999999701976776 0.3160000145435333 -2.7263104640992135 1.5227532951613673e-09 -3.5949309167331194 0.6937843211795708 -2.914611682857587 -0.003425216338254677 -7.58735321025422e-08 9.803676323385794e-08 3.6272893637160517 90.81669031672423 7.365929286560308 165.80268254505677 -2.8995904061095767e-06 1.833617665623707e-06 39.120159069280604 -1.82760702251857e-06 24.705725973796763 27.25219431407858 3.1805546814635168e-15 0.0 0.0 -92.71507279490287 7.844605957263306 -157.2532721373914 7.432308467742575e-07 -1.324915080981329e-06 -45.29179309577263 179.99999434363798 -49.38041033366464 142.41737136174763 0.0 0.0 0.0 7.3804053204324545 -3.0147282807573696 -23.20258033805118 -6.181106973076988 20.375910222243586 -20.925624217967417 92.17986690543954 -36.90427221010221 149.9422524115957 -2.2069531490250793e-31 7.951386703658792e-15 3.1805546814635168e-15 -19.16148530615809 0.8674421671126058 42.75437902193555 0.056467370223269454 -0.16034074932560713 -0.33238766645112167 -63.658330646079634 -44.93662428622879 -137.7884379522488 6.361109362927032e-15 -3.531125038440127e-31 -6.361109362927032e-15
-0.039000000804662704 0.054999999701976776 0.3160000145435333 -2.7263104640992135 1.5227532951613673e-09 -3.5949309167331194 0.6822056672843938 -2.7307507643526536 -0.003760849429232227 2.0303353414205848e-08 -3.017918576812969e-07 3.476267181385932 90.79306584351264 7.5192896809928 165.98631686472456 -2.8995904061095767e-06 1.833617665623707e-06 39.120159069280604 -2.9908992276644586e-07 21.461883975646057 26.86012758368258 6.361109362927035e-15 3.531125038440127e-31 6.361109362927035e-15 -92.65791226789364 7.71040621345925 -157.6610366268916 -3.1390941097553203e-06 -2.8877129408068263e-07 -45.24392301101311 179.99999850361925 -51.83660287415756 141.2100433140225 6.361109362927035e-15 5.565970692561156e-15 -3.089734408635111e-31 7.52720556383458 -3.1436121256940455 -23.11107191644731 -6.527298199828126 20.49946813866652 -20.928556564473 92.3552536615778 -36.9172877833639 149.92656295340626 -2.2069531490250793e-31 7.951386703658792e-15 3.1805546814635168e-15 -19.15340955028563 0.7314415208618145 42.53457002159578 0.048069885099139925 0.02072124816409386 0.043132900370734625 -64.33160382638357 -44.798663904358044 -138.64221013008174 -3.180554681463516e-15 6.361109362927033e-15 -4.770832022195274e-15
-0.039000000804662704 0.054999999701976776 0.3160000145435333 -2.7263104953089226 -7.138793012536582e-09 -3.2688669446678627 0.6666435779774232 -2.734588700322441 -0.0045214584312770496 6.818209138968957e-08 -3.100825650738743e-07 3.299880741734463 90.79279696174788 7.370038659165036 165.98840032110115 -2.8995904061095767e-06 1.833617665623707e-06 39.120159069280604 -2.9908992276644586e-07 21.461883975646057 26.86012758368258 6.361109362927035e-15 3.531125038440127e-31 6.361109362927035e-15 -92.75608435566353 8.09366170911653 -157.64055103249186 6.981800216656979e-07 -4.980746538009474e-07 -45.260677127951624 179.99999958049938 -49.270372385351656 142.4173749094098 0.0 0.0 -3.1805546814635164e-15 7.517183023942751 -3.3244387074822277 -22.65130185694066 -6.301227729063083 20.71024956193996 -21.39850590552379 92.36604263112405 -37.263593793494245 149.98621488450303 3.1805546814635168e-15 4.770832022195275e-15 3.1805546814635168e-15 -19.141844881934784 0.702342766699461 42.00514327775565 0.13359242556209439 0.12693451554283455 0.26426016887333065 -64.34430910742424 -45.26412925889196 -138.4244144532564 0.0 0.0 0.0
-0.039000000804662704 0.054999999701976776 0.3160000145435333 -2.7263105477097835 -9.975081796533559e-09 -3.2875818804949195 0.6675372264016339 -2.7343707990911437 -0.0039405495790649555 1.3584985696911718e-07 -1.7916896273632998e-07 3.3180347663615457 90.79279696174788 7.370038659165036 165.98840032110115 -2.8995904061095767e-06 1.833617665623707e-06 39.120159069280604 -2.9908992276644586e-07 21.461883975646057 26.86012758368258 6.361109362927035e-15 3.531125038440127e-31 6.361109362927035e-15 -92.74766666881533 8.120249341864657 -157.71450886939147 6.370053994441825e-07 1.3833912385001388e-06 -45.51294687152024 -179.9999990493545 -50.14603273304878 141.98851788127453 -6.3611093629270335e-15 -1.7655625192200634e-31 3.1805546814635168e-15 7.656414821325489 -3.313382705322402 -23.01656759739099 -6.569224965527097 20.60528347770324 -21.39171525110802 91.70841938460414 -36.96226786636233 149.71813188424466 3.1805546814635168e-15 -6.3611093629270335e-15 1.7655625192200634e-31 -19.142060046062078 0.6962059710911069 42.02282328587248 0.05176284024015151 0.02557341594923359 0.05343724180925363 -63.8637181637506 -44.86798257185712 -138.2144491969357 3.1805546814635164e-15 1.5902773407317582e-15 -4.4139062980501586e-32
